<?xml version="1.0" encoding="UTF-8"?>
<svg id="_Слой_1" data-name="Слой 1" xmlns="http://www.w3.org/2000/svg" viewBox="0 0 824.36 316.34">
  <defs>
    <style>
      .cls-1 {
        fill: #fdfbf1;
      }
    </style>
  </defs>
  <g>
    <path class="cls-1" d="M293.59,229.63h16.66v34.29l34.29-34.29h20.58l-30.37,30.37,34.29,34.29h-20.58l-24.01-24-14.21,14.21v9.8h-16.66v-64.67Z"/>
    <path class="cls-1" d="M376.87,247.27h41.15c9.8,0,19.6,0,19.6,11.27v24.49c0,11.27-9.8,11.27-19.6,11.27h-25.47v22.05h-15.68v-69.08ZM417.04,284.99c2.45,0,4.9,0,4.9-2.94v-22.54c0-2.94-2.45-2.94-4.9-2.94h-24.49v28.41h24.49Z"/>
    <path class="cls-1" d="M462.11,247.27l16.66,33.31,16.66-33.31h16.66l-29.39,58.79c-2.94,5.88-5.39,10.29-14.7,10.29h-16.66v-9.31h9.8c4.41,0,4.9-.98,6.37-3.92l2.94-5.88-24.98-49.97h16.66Z"/>
    <path class="cls-1" d="M540.49,269.8l-22.53-22.54h18.62l17.64,17.64v-17.64h15.68v17.64l17.64-17.64h18.62l-22.53,22.54,24.49,24.49h-18.62l-15.19-15.19-4.41,4.41v10.78h-15.68v-10.78l-4.41-4.41-15.19,15.19h-18.62l24.49-24.49Z"/>
    <path class="cls-1" d="M615.93,258.53c0-11.27,9.8-11.27,19.6-11.27h21.56c9.8,0,19.6,0,19.6,11.27v15.68h-45.07v7.84c0,2.94,2.45,2.94,4.9,2.94h38.21v9.31h-39.19c-9.8,0-19.6,0-19.6-11.27v-24.49ZM661,264.9v-5.39c0-2.94-2.45-2.94-4.9-2.94h-19.6c-2.45,0-4.9,0-4.9,2.94v5.39h29.39Z"/>
    <path class="cls-1" d="M688.43,247.27h15.68v21.56l21.56-21.56h18.62l-22.53,22.54,24.49,24.49h-18.62l-15.19-15.19-8.33,8.33v6.86h-15.68v-47.03Z"/>
  </g>
  <path class="cls-1" d="M149.95,0C67.14,0,0,60.38,0,134.86s67.14,134.86,149.95,134.86,149.95-60.38,149.95-134.86S232.77,0,149.95,0ZM149.95,189.04c-64.33,0-116.47-36.99-116.47-82.62S85.63,23.81,149.95,23.81s116.47,36.99,116.47,82.62-52.15,82.62-116.47,82.62Z"/>
  <g>
    <path class="cls-1" d="M469.88,126.75c0-26.64,23.17-26.64,46.34-26.64h50.97c23.17,0,46.34,0,46.34,26.64v57.92c0,26.64-23.17,26.64-46.34,26.64h-50.97c-23.17,0-46.34,0-46.34-26.64v-57.92ZM518.53,189.31h46.34c5.79,0,11.58,0,11.58-6.95v-53.29c0-6.95-5.79-6.95-11.58-6.95h-46.34c-5.79,0-11.59,0-11.59,6.95v53.29c0,6.95,5.79,6.95,11.59,6.95Z"/>
    <path class="cls-1" d="M641.33,100.11h52.13l39.39,78.77,39.39-78.77h52.13v111.21h-37.07v-74.14l-37.07,74.14h-34.75l-37.07-74.14v74.14h-37.07v-111.21Z"/>
    <path class="cls-1" d="M356.35,58.41h-62.46c7,6.77,13.04,15,17.82,24.33h33.05c27.8,0,55.6,9.27,55.6,46.34v10.42c0,37.07-27.8,46.34-55.6,46.34h-33.05c-5.05,9.86-11.5,18.51-19.01,25.48h63.65c41.7,0,83.41-19.69,83.41-71.82v-10.42c0-52.13-41.7-70.66-83.41-70.66Z"/>
  </g>
</svg>